<svg preserveAspectRatio="none" overflow="visible" style="display: block;" width="74" height="74" viewBox="0 0 74 74" fill="none" xmlns="http://www.w3.org/2000/svg">
<g id="map">
<mask id="mask0_0_611" style="mask-type:alpha" maskUnits="userSpaceOnUse" x="0" y="0" width="74" height="74">
<rect id="Bounding box" width="74" height="74" fill="#D9D9D9"/>
</mask>
<g mask="url(#mask0_0_611)">
<path id="map_2" d="M46.25 64.75L27.75 58.275L13.4125 63.825C12.3847 64.2361 11.434 64.1205 10.5604 63.4781C9.68681 62.8358 9.25 61.975 9.25 60.8958V17.7292C9.25 17.0611 9.44271 16.4701 9.82812 15.9562C10.2135 15.4424 10.7403 15.0569 11.4083 14.8L27.75 9.25L46.25 15.725L60.5875 10.175C61.6153 9.76389 62.566 9.87951 63.4396 10.5219C64.3132 11.1642 64.75 12.025 64.75 13.1042V56.2708C64.75 56.9389 64.5573 57.5299 64.1719 58.0437C63.7865 58.5576 63.2597 58.9431 62.5917 59.2L46.25 64.75ZM43.1667 57.1958V21.1208L30.8333 16.8042V52.8792L43.1667 57.1958Z" fill="#FF6015"/>
</g>
</g>
</svg>
