<svg preserveAspectRatio="none" overflow="visible" style="display: block;" width="32" height="32" viewBox="0 0 32 32" fill="none" xmlns="http://www.w3.org/2000/svg">
<g id="real_estate_agent">
<mask id="mask0_0_127" style="mask-type:alpha" maskUnits="userSpaceOnUse" x="0" y="0" width="32" height="32">
<rect id="Bounding box" width="32" height="32" fill="#D9D9D9"/>
</mask>
<g mask="url(#mask0_0_127)">
<path id="real_estate_agent_2" d="M17.8333 29.1C18.0778 29.1667 18.3611 29.1944 18.6833 29.1833C19.0056 29.1722 19.2778 29.1222 19.5 29.0333L29.3333 25.3333C29.3333 24.5778 29.0667 23.9444 28.5333 23.4333C28 22.9222 27.3778 22.6667 26.6667 22.6667H17.5333C17.4667 22.6667 17.3889 22.6611 17.3 22.65C17.2111 22.6389 17.1444 22.6222 17.1 22.6L15.1333 21.9C14.9556 21.8333 14.8333 21.7222 14.7667 21.5667C14.7 21.4111 14.6889 21.2444 14.7333 21.0667C14.7778 20.9111 14.8889 20.7889 15.0667 20.7C15.2444 20.6111 15.4222 20.6 15.6 20.6667L17.1 21.2333C17.1889 21.2778 17.2611 21.3056 17.3167 21.3167C17.3722 21.3278 17.4556 21.3333 17.5667 21.3333H21.0667C21.4889 21.3333 21.8611 21.1889 22.1833 20.9C22.5056 20.6111 22.6667 20.2333 22.6667 19.7667C22.6667 19.4556 22.5722 19.1556 22.3833 18.8667C22.1944 18.5778 21.9444 18.3778 21.6333 18.2667L12.4 14.8333C12.2444 14.7889 12.0889 14.75 11.9333 14.7167C11.7778 14.6833 11.6222 14.6667 11.4667 14.6667H9.33333V26.7L17.8333 29.1ZM1.33333 26.6667C1.33333 27.4 1.59444 28.0278 2.11667 28.55C2.63889 29.0722 3.26667 29.3333 4 29.3333C4.73333 29.3333 5.36111 29.0722 5.88333 28.55C6.40556 28.0278 6.66667 27.4 6.66667 26.6667V17.3333C6.66667 16.6 6.40556 15.9722 5.88333 15.45C5.36111 14.9278 4.73333 14.6667 4 14.6667C3.26667 14.6667 2.63889 14.9278 2.11667 15.45C1.59444 15.9722 1.33333 16.6 1.33333 17.3333V26.6667Z" fill="#FF6015"/>
<path id="attach_money" d="M25.2807 20C25.0288 20 24.8177 19.9148 24.6473 19.7444C24.477 19.5741 24.3918 19.363 24.3918 19.1111V18.0889C23.7251 17.9407 23.1399 17.6815 22.6362 17.3111C22.1325 16.9407 21.7251 16.4222 21.414 15.7556C21.3103 15.5481 21.3066 15.3296 21.4029 15.1C21.4992 14.8704 21.6733 14.7037 21.9251 14.6C22.1325 14.5111 22.3473 14.5148 22.5695 14.6111C22.7918 14.7074 22.9621 14.8667 23.0807 15.0889C23.3325 15.5333 23.651 15.8704 24.0362 16.1C24.4214 16.3296 24.8955 16.4444 25.4584 16.4444C26.0658 16.4444 26.5807 16.3074 27.0029 16.0333C27.4251 15.7593 27.6362 15.3333 27.6362 14.7556C27.6362 14.237 27.4733 13.8259 27.1473 13.5222C26.8214 13.2185 26.0658 12.8741 24.8807 12.4889C23.6066 12.0889 22.7325 11.6111 22.2584 11.0556C21.7844 10.5 21.5473 9.82222 21.5473 9.02222C21.5473 8.05926 21.8584 7.31111 22.4807 6.77778C23.1029 6.24444 23.7399 5.94074 24.3918 5.86667V4.88889C24.3918 4.63704 24.477 4.42593 24.6473 4.25556C24.8177 4.08519 25.0288 4 25.2807 4C25.5325 4 25.7436 4.08519 25.914 4.25556C26.0844 4.42593 26.1695 4.63704 26.1695 4.88889V5.86667C26.7325 5.95556 27.2214 6.13704 27.6362 6.41111C28.051 6.68519 28.3918 7.02222 28.6584 7.42222C28.7918 7.61481 28.8177 7.82963 28.7362 8.06667C28.6547 8.3037 28.4881 8.47407 28.2362 8.57778C28.0288 8.66667 27.814 8.67037 27.5918 8.58889C27.3695 8.50741 27.1621 8.36296 26.9695 8.15556C26.777 7.94815 26.551 7.78889 26.2918 7.67778C26.0325 7.56667 25.7103 7.51111 25.3251 7.51111C24.6733 7.51111 24.177 7.65556 23.8362 7.94444C23.4955 8.23333 23.3251 8.59259 23.3251 9.02222C23.3251 9.51111 23.5473 9.8963 23.9918 10.1778C24.4362 10.4593 25.2066 10.7556 26.3029 11.0667C27.3251 11.363 28.0992 11.8333 28.6251 12.4778C29.151 13.1222 29.414 13.8667 29.414 14.7111C29.414 15.763 29.1029 16.563 28.4807 17.1111C27.8584 17.6593 27.0881 18 26.1695 18.1333V19.1111C26.1695 19.363 26.0844 19.5741 25.914 19.7444C25.7436 19.9148 25.5325 20 25.2807 20Z" fill="#FF6015"/>
</g>
</g>
</svg>
